<?xml version="1.0" encoding="utf-8"?>
<!-- Generator: Adobe Illustrator 27.6.1, SVG Export Plug-In . SVG Version: 6.00 Build 0)  -->
<svg version="1.1" id="Capa_1" xmlns="http://www.w3.org/2000/svg" xmlns:xlink="http://www.w3.org/1999/xlink" x="0px" y="0px"
	 viewBox="0 0 448 512" style="enable-background:new 0 0 448 512;" xml:space="preserve">
<style type="text/css">
	.st0{fill:#FFFFFF;}
</style>
<path class="st0" d="M64,32C28.7,32,0,60.7,0,96v320c0,35.3,28.7,64,64,64h320c35.3,0,64-28.7,64-64V96c0-35.3-28.7-64-64-64H64z
	 M128,224c17.7,0,32,14.3,32,32v96c0,17.7-14.3,32-32,32s-32-14.3-32-32v-96C96,238.3,110.3,224,128,224z M192,160
	c0-17.7,14.3-32,32-32s32,14.3,32,32v192c0,17.7-14.3,32-32,32s-32-14.3-32-32V160z M320,288c17.7,0,32,14.3,32,32v32
	c0,17.7-14.3,32-32,32s-32-14.3-32-32v-32C288,302.3,302.3,288,320,288z"/>
</svg>
