<?xml version="1.0" encoding="utf-8"?>
<!-- Generator: Adobe Illustrator 27.7.0, SVG Export Plug-In . SVG Version: 6.00 Build 0)  -->
<svg version="1.1" id="Capa_1" xmlns="http://www.w3.org/2000/svg" xmlns:xlink="http://www.w3.org/1999/xlink" x="0px" y="0px"
	 viewBox="0 0 800 800" style="enable-background:new 0 0 800 800;" xml:space="preserve">
<style type="text/css">
	.st0{fill:#FFFFFF;}
</style>
<g>
	<g>
		<path class="st0" d="M400,0C256,0,138.8,117.2,138.8,261.2c0,131.8,210.1,483.8,234.1,523.5c5.7,9.5,16,15.3,27.1,15.3
			s21.4-5.8,27.1-15.3c24-39.7,234.1-391.7,234.1-523.5C661.2,117.2,544,0,400,0z M400,706c-72.9-126.2-197.9-359.9-197.9-444.8
			c0-109.1,88.8-197.9,197.9-197.9s197.9,88.8,197.9,197.9C597.9,346,472.9,579.8,400,706z"/>
		<path class="st0" d="M400,110.8c-82.9,0-150.4,67.5-150.4,150.4c0,82.9,67.5,150.4,150.4,150.4c82.9,0,150.4-67.5,150.4-150.4
			C550.4,178.3,482.9,110.8,400,110.8z M400,348.3c-48,0-87.1-39.1-87.1-87.1c0-48,39.1-87.1,87.1-87.1c48,0,87.1,39.1,87.1,87.1
			C487.1,309.2,448,348.3,400,348.3z"/>
	</g>
</g>
</svg>
